<?xml version="1.0" encoding="UTF-8"?>
<svg id="svg2196" xmlns="http://www.w3.org/2000/svg" xmlns:svg="http://www.w3.org/2000/svg" version="1.1" viewBox="0 0 125.7 123.8">
  <!-- Generator: Adobe Illustrator 30.0.0, SVG Export Plug-In . SVG Version: 2.1.1 Build 123)  -->
  <defs>
    <style>
      .st0 {
        fill: #012850;
      }
    </style>
  </defs>
  <path class="st0" d="M13.706,38.776c0-2.159,1.26-2.819,2.82-2.819h12c11.16,0,16.62,4.319,16.62,13.199,0,9.18-6.12,13.439-16.739,13.439h-6.42v13.619c0,2.16-1.26,2.82-2.82,2.82h-2.64c-1.56,0-2.82-.66-2.82-2.82v-37.438ZM28.765,55.816c3.84,0,8.1-1.021,8.1-6.66,0-4.199-2.82-6.239-7.8-6.239h-7.08v12.899h6.78Z"/>
  <path class="st0" d="M48.865,38.776c0-2.159,1.261-2.819,2.82-2.819h1.62c1.56,0,2.819.66,2.819,2.819v12.36c3.48-2.88,6.3-4.021,9.66-4.021,3.779,0,6.239,1.32,7.619,3.84,1.08,1.681,1.32,3.84,1.32,8.1v17.159c0,2.16-1.26,2.82-2.82,2.82h-1.68c-1.56,0-2.819-.66-2.819-2.82v-17.159c0-3.54-.9-5.76-4.38-5.76-2.22,0-4.5,1.141-6.9,3.42v19.499c0,2.16-1.26,2.82-2.819,2.82h-1.62c-1.56,0-2.82-.66-2.82-2.82v-37.438Z"/>
  <path class="st0" d="M81.506,38.776c0-2.159,1.26-2.819,2.819-2.819h10.38c14.1,0,20.999,7.08,20.999,20.939,0,14.459-7.68,22.139-21.839,22.139h-9.54c-1.56,0-2.819-.66-2.819-2.82v-37.438ZM94.405,71.835c8.999,0,13.02-5.101,13.02-14.76,0-9.24-3.9-13.92-12.18-13.92h-5.46v28.68h4.62Z"/>
</svg>