<?xml version="1.0" encoding="UTF-8"?>
<svg id="svg2196" xmlns="http://www.w3.org/2000/svg" xmlns:svg="http://www.w3.org/2000/svg" version="1.1" viewBox="0 0 125.7 123.8">
  <!-- Generator: Adobe Illustrator 30.0.0, SVG Export Plug-In . SVG Version: 2.1.1 Build 123)  -->
  <defs>
    <style>
      .st0 {
        fill: #012850;
      }
    </style>
  </defs>
  <g>
    <path class="st0" d="M22.877,16.945c0-2.159,1.26-2.819,2.82-2.819h5.88c1.68,0,3,.6,3.6,2.7l8.58,29.519h.12l8.879-29.519c.66-2.101,1.98-2.7,3.66-2.7h5.76c1.56,0,2.82.66,2.82,2.819v37.438c0,2.16-1.261,2.82-2.82,2.82h-2.1c-1.561,0-2.82-.66-2.82-2.82v-29.878h-.12l-8.999,29.998c-.48,1.561-1.32,2.7-3,2.7h-2.46c-1.68,0-2.52-1.14-3-2.7l-9.06-29.998h-.12v29.878c0,2.16-1.26,2.82-2.82,2.82h-1.98c-1.56,0-2.82-.66-2.82-2.82V16.945Z"/>
    <path class="st0" d="M82.696,16.826c.66-2.101,1.98-2.7,3.66-2.7h5.58c1.68,0,3,.6,3.66,2.7l11.339,37.678c.72,2.46-.54,2.7-1.979,2.7h-3.66c-1.68,0-2.34-.6-2.939-2.7l-2.4-8.64h-13.919l-2.4,8.64c-.6,2.101-1.26,2.7-2.939,2.7h-3.3c-1.44,0-2.76-.24-2.04-2.7l11.339-37.678ZM94.036,38.964l-4.979-17.999h-.12l-4.979,17.999h10.079Z"/>
  </g>
  <g>
    <path class="st0" d="M9.688,66.937c0-2.159,1.26-2.819,2.82-2.819h5.88c1.68,0,3,.6,3.6,2.7l8.58,29.519h.12l8.879-29.519c.66-2.101,1.98-2.7,3.66-2.7h5.76c1.56,0,2.82.66,2.82,2.819v37.438c0,2.16-1.261,2.82-2.82,2.82h-2.1c-1.561,0-2.82-.66-2.82-2.82v-29.878h-.12l-8.999,29.998c-.48,1.561-1.32,2.7-3,2.7h-2.46c-1.68,0-2.52-1.14-3-2.7l-9.06-29.998h-.12v29.878c0,2.16-1.26,2.82-2.82,2.82h-1.98c-1.56,0-2.82-.66-2.82-2.82v-37.438Z"/>
    <path class="st0" d="M59.667,95.676l2.82-.9c2.1-.659,2.581.48,3.3,1.92,1.44,2.94,3.96,4.5,7.979,4.5,4.32,0,7.44-1.979,7.44-5.76,0-9.479-22.74-4.199-22.74-20.219,0-7.2,6-11.819,14.339-11.819,6.72,0,11.34,2.34,13.979,7.319.721,1.32,1.141,2.64-1.319,3.479l-2.521.9c-1.62.54-2.34-.42-3.239-1.8-1.561-2.22-3.72-3.3-6.78-3.3-3.72,0-6.479,1.859-6.479,5.159,0,8.76,22.559,3.84,22.559,19.68,0,8.579-6.479,13.079-15.719,13.079-7.38,0-12.3-2.58-15.12-8.819-.601-1.38-1.08-2.64,1.499-3.42Z"/>
    <path class="st0" d="M106.407,75.277c5.04,0,8.939,1.74,11.34,5.94.72,1.319,1.14,2.579-1.26,3.539l-1.32.54c-1.56.66-2.52-.239-3.54-1.62-1.26-1.739-2.88-2.459-5.1-2.459-4.26,0-7.02,3.659-7.02,10.56,0,6.959,2.819,10.199,7.079,10.199,2.4,0,4.2-.9,5.7-2.76,1.02-1.32,2.04-2.04,3.479-1.32l1.32.66c2.28,1.14,1.74,2.46.84,3.66-2.88,3.899-6.72,5.699-11.88,5.699-8.579,0-13.739-6.18-13.739-16.199,0-10.319,5.521-16.439,14.1-16.439Z"/>
  </g>
</svg>